<?xml version="1.0" encoding="UTF-8" standalone="no"?>
<svg
   id="visual"
   viewBox="0 0 900 600"
   width="900"
   height="600"
   version="1.1"
   sodipodi:docname="background.svg"
   inkscape:version="1.1.1 (eb90963e84, 2021-10-02)"
   xmlns:inkscape="http://www.inkscape.org/namespaces/inkscape"
   xmlns:sodipodi="http://sodipodi.sourceforge.net/DTD/sodipodi-0.dtd"
   xmlns="http://www.w3.org/2000/svg"
   xmlns:svg="http://www.w3.org/2000/svg">
  <defs
     id="defs9" />
  <sodipodi:namedview
     id="namedview7"
     pagecolor="#505050"
     bordercolor="#eeeeee"
     borderopacity="1"
     inkscape:pageshadow="0"
     inkscape:pageopacity="0"
     inkscape:pagecheckerboard="0"
     showgrid="false"
     inkscape:zoom="0.55048947"
     inkscape:cx="406.00232"
     inkscape:cy="289.74215"
     inkscape:window-width="1302"
     inkscape:window-height="704"
     inkscape:window-x="1430"
     inkscape:window-y="27"
     inkscape:window-maximized="1"
     inkscape:current-layer="visual" />
  <g
     id="g2498"
     transform="matrix(1.0066135,0,0,1,-1.5920719,2.738053)">
    <path
       d="m 0,61 8.8,-3 c 8.9,-3 26.5,-9 44.2,-9 17.7,0 35.3,6 53,6 17.7,0 35.3,-6 53,-5 17.7,1 35.3,9 53,11 17.7,2 35.3,-2 53,-2 17.7,0 35.3,4 53,5 17.7,1 35.3,-1 53,-8 17.7,-7 35.3,-19 52.8,-20 17.5,-1 34.9,9 52.4,17 17.5,8 35.1,14 52.8,14 17.7,0 35.3,-6 53,-14 17.7,-8 35.3,-18 53,-19 17.7,-1 35.3,7 53,13 17.7,6 35.3,10 53,7 17.7,-3 35.3,-13 53,-19 17.7,-6 35.3,-8 53,-10 17.7,-2 35.3,-4 44.2,-5 L 900,19 V 0 h -8.8 C 882.3,0 864.7,0 847,0 829.3,0 811.7,0 794,0 776.3,0 758.7,0 741,0 723.3,0 705.7,0 688,0 670.3,0 652.7,0 635,0 617.3,0 599.7,0 582,0 564.3,0 546.7,0 529,0 511.3,0 493.7,0 476.2,0 458.7,0 441.3,0 423.8,0 406.3,0 388.7,0 371,0 353.3,0 335.7,0 318,0 300.3,0 282.7,0 265,0 247.3,0 229.7,0 212,0 194.3,0 176.7,0 159,0 141.3,0 123.7,0 106,0 88.3,0 70.7,0 53,0 35.3,0 17.7,0 8.8,0 H 0 Z"
       fill="#565a5e"
       id="path2457" />
    <path
       d="m 0,73 8.8,-2 c 8.9,-2 26.5,-6 44.2,-2 17.7,4 35.3,16 53,19 17.7,3 35.3,-3 53,-6 17.7,-3 35.3,-3 53,-5 17.7,-2 35.3,-6 53,-4 17.7,2 35.3,10 53,15 17.7,5 35.3,7 53,0 17.7,-7 35.3,-23 52.8,-28 17.5,-5 34.9,1 52.4,9 17.5,8 35.1,18 52.8,18 17.7,0 35.3,-10 53,-18 17.7,-8 35.3,-14 53,-11 17.7,3 35.3,15 53,20 17.7,5 35.3,3 53,-2 17.7,-5 35.3,-13 53,-17 17.7,-4 35.3,-4 53,-4 17.7,0 35.3,0 44.2,0 H 900 V 17 l -8.8,1 c -8.9,1 -26.5,3 -44.2,5 -17.7,2 -35.3,4 -53,10 -17.7,6 -35.3,16 -53,19 -17.7,3 -35.3,-1 -53,-7 -17.7,-6 -35.3,-14 -53,-13 -17.7,1 -35.3,11 -53,19 -17.7,8 -35.3,14 -53,14 -17.7,0 -35.3,-6 -52.8,-14 -17.5,-8 -34.9,-18 -52.4,-17 -17.5,1 -35.1,13 -52.8,20 -17.7,7 -35.3,9 -53,8 -17.7,-1 -35.3,-5 -53,-5 -17.7,0 -35.3,4 -53,2 C 194.3,57 176.7,49 159,48 141.3,47 123.7,53 106,53 88.3,53 70.7,47 53,47 35.3,47 17.7,53 8.8,56 L 0,59 Z"
       fill="#4f5357"
       id="path2459" />
    <path
       d="m 0,265 8.8,-15 c 8.9,-15 26.5,-45 44.2,-55 17.7,-10 35.3,0 53,-3 17.7,-3 35.3,-19 53,-27 17.7,-8 35.3,-8 53,-5 17.7,3 35.3,9 53,23 17.7,14 35.3,36 53,42 17.7,6 35.3,-4 53,0 17.7,4 35.3,22 52.8,9 17.5,-13 34.9,-57 52.4,-58 17.5,-1 35.1,41 52.8,54 17.7,13 35.3,-3 53,-16 17.7,-13 35.3,-23 53,-26 17.7,-3 35.3,1 53,4 17.7,3 35.3,5 53,-1 17.7,-6 35.3,-20 53,-20 17.7,0 35.3,14 53,13 17.7,-1 35.3,-17 44.2,-25 l 8.8,-8 V 53 h -8.8 c -8.9,0 -26.5,0 -44.2,0 -17.7,0 -35.3,0 -53,4 -17.7,4 -35.3,12 -53,17 -17.7,5 -35.3,7 -53,2 -17.7,-5 -35.3,-17 -53,-20 -17.7,-3 -35.3,3 -53,11 -17.7,8 -35.3,18 -53,18 -17.7,0 -35.3,-10 -52.8,-18 -17.5,-8 -34.9,-14 -52.4,-9 -17.5,5 -35.1,21 -52.8,28 -17.7,7 -35.3,5 -53,0 -17.7,-5 -35.3,-13 -53,-15 -17.7,-2 -35.3,2 -53,4 -17.7,2 -35.3,2 -53,5 -17.7,3 -35.3,9 -53,6 C 88.3,83 70.7,71 53,67 35.3,63 17.7,67 8.8,69 L 0,71 Z"
       fill="#494d51"
       id="path2461" />
    <path
       d="m 0,301 8.8,-5 c 8.9,-5 26.5,-15 44.2,-15 17.7,0 35.3,10 53,4 17.7,-6 35.3,-28 53,-40 17.7,-12 35.3,-14 53,-15 17.7,-1 35.3,-1 53,11 17.7,12 35.3,36 53,48 17.7,12 35.3,12 53,15 17.7,3 35.3,9 52.8,-9 17.5,-18 34.9,-60 52.4,-59 17.5,1 35.1,45 52.8,56 17.7,11 35.3,-11 53,-16 17.7,-5 35.3,7 53,9 17.7,2 35.3,-6 53,-7 17.7,-1 35.3,5 53,-4 17.7,-9 35.3,-33 53,-35 17.7,-2 35.3,18 53,13 17.7,-5 35.3,-35 44.2,-50 l 8.8,-15 v -38 l -8.8,8 c -8.9,8 -26.5,24 -44.2,25 -17.7,1 -35.3,-13 -53,-13 -17.7,0 -35.3,14 -53,20 -17.7,6 -35.3,4 -53,1 -17.7,-3 -35.3,-7 -53,-4 -17.7,3 -35.3,13 -53,26 -17.7,13 -35.3,29 -53,16 -17.7,-13 -35.3,-55 -52.8,-54 -17.5,1 -34.9,45 -52.4,58 -17.5,13 -35.1,-5 -52.8,-9 -17.7,-4 -35.3,6 -53,0 -17.7,-6 -35.3,-28 -53,-42 -17.7,-14 -35.3,-20 -53,-23 -17.7,-3 -35.3,-3 -53,5 -17.7,8 -35.3,24 -53,27 -17.7,3 -35.3,-7 -53,3 -17.7,10 -35.3,40 -44.2,55 L 0,263 Z"
       fill="#43464a"
       id="path2463" />
    <path
       d="m 0,385 8.8,-2 c 8.9,-2 26.5,-6 44.2,-4 17.7,2 35.3,10 53,18 17.7,8 35.3,16 53,15 17.7,-1 35.3,-11 53,-14 17.7,-3 35.3,1 53,5 17.7,4 35.3,8 53,10 17.7,2 35.3,2 53,-2 17.7,-4 35.3,-12 52.8,-25 17.5,-13 34.9,-31 52.4,-28 17.5,3 35.1,27 52.8,35 17.7,8 35.3,0 53,-4 17.7,-4 35.3,-4 53,-8 17.7,-4 35.3,-12 53,-15 17.7,-3 35.3,-1 53,3 17.7,4 35.3,10 53,11 17.7,1 35.3,-3 53,-7 17.7,-4 35.3,-8 44.2,-10 l 8.8,-2 V 185 l -8.8,15 c -8.9,15 -26.5,45 -44.2,50 -17.7,5 -35.3,-15 -53,-13 -17.7,2 -35.3,26 -53,35 -17.7,9 -35.3,3 -53,4 -17.7,1 -35.3,9 -53,7 -17.7,-2 -35.3,-14 -53,-9 -17.7,5 -35.3,27 -53,16 -17.7,-11 -35.3,-55 -52.8,-56 -17.5,-1 -34.9,41 -52.4,59 -17.5,18 -35.1,12 -52.8,9 -17.7,-3 -35.3,-3 -53,-15 -17.7,-12 -35.3,-36 -53,-48 -17.7,-12 -35.3,-12 -53,-11 -17.7,1 -35.3,3 -53,15 -17.7,12 -35.3,34 -53,40 -17.7,6 -35.3,-4 -53,-4 -17.7,0 -35.3,10 -44.2,15 L 0,299 Z"
       fill="#3c4044"
       id="path2465" />
    <path
       d="m 0,403 8.8,-1 c 8.9,-1 26.5,-3 44.2,2 17.7,5 35.3,17 53,24 17.7,7 35.3,9 53,7 17.7,-2 35.3,-8 53,-10 17.7,-2 35.3,0 53,6 17.7,6 35.3,16 53,20 17.7,4 35.3,2 53,-3 17.7,-5 35.3,-13 52.8,-23 17.5,-10 34.9,-22 52.4,-22 17.5,0 35.1,12 52.8,16 17.7,4 35.3,0 53,-2 17.7,-2 35.3,-2 53,-4 17.7,-2 35.3,-6 53,-10 17.7,-4 35.3,-8 53,-4 17.7,4 35.3,16 53,19 17.7,3 35.3,-3 53,-6 17.7,-3 35.3,-3 44.2,-3 h 8.8 v -50 l -8.8,2 c -8.9,2 -26.5,6 -44.2,10 -17.7,4 -35.3,8 -53,7 -17.7,-1 -35.3,-7 -53,-11 -17.7,-4 -35.3,-6 -53,-3 -17.7,3 -35.3,11 -53,15 -17.7,4 -35.3,4 -53,8 -17.7,4 -35.3,12 -53,4 -17.7,-8 -35.3,-32 -52.8,-35 -17.5,-3 -34.9,15 -52.4,28 -17.5,13 -35.1,21 -52.8,25 -17.7,4 -35.3,4 -53,2 -17.7,-2 -35.3,-6 -53,-10 -17.7,-4 -35.3,-8 -53,-5 -17.7,3 -35.3,13 -53,14 -17.7,1 -35.3,-7 -53,-15 -17.7,-8 -35.3,-16 -53,-18 -17.7,-2 -35.3,2 -44.2,4 L 0,383 Z"
       fill="#36393d"
       id="path2467" />
    <path
       d="m 0,421 8.8,1 c 8.9,1 26.5,3 44.2,7 17.7,4 35.3,10 53,14 17.7,4 35.3,6 53,4 17.7,-2 35.3,-8 53,-9 17.7,-1 35.3,3 53,12 17.7,9 35.3,23 53,28 17.7,5 35.3,1 53,-6 17.7,-7 35.3,-17 52.8,-26 17.5,-9 34.9,-17 52.4,-17 17.5,0 35.1,8 52.8,10 17.7,2 35.3,-2 53,-5 17.7,-3 35.3,-5 53,-7 17.7,-2 35.3,-4 53,-5 17.7,-1 35.3,-1 53,3 17.7,4 35.3,12 53,14 17.7,2 35.3,-2 53,-3 17.7,-1 35.3,1 44.2,2 l 8.8,1 v -32 h -8.8 c -8.9,0 -26.5,0 -44.2,3 -17.7,3 -35.3,9 -53,6 -17.7,-3 -35.3,-15 -53,-19 -17.7,-4 -35.3,0 -53,4 -17.7,4 -35.3,8 -53,10 -17.7,2 -35.3,2 -53,4 -17.7,2 -35.3,6 -53,2 -17.7,-4 -35.3,-16 -52.8,-16 -17.5,0 -34.9,12 -52.4,22 -17.5,10 -35.1,18 -52.8,23 -17.7,5 -35.3,7 -53,3 -17.7,-4 -35.3,-14 -53,-20 -17.7,-6 -35.3,-8 -53,-6 -17.7,2 -35.3,8 -53,10 -17.7,2 -35.3,0 -53,-7 C 88.3,419 70.7,407 53,402 35.3,397 17.7,399 8.8,400 L 0,401 Z"
       fill="#323539"
       id="path2469" />
    <path
       d="m 0,451 8.8,3 c 8.9,3 26.5,9 44.2,10 17.7,1 35.3,-3 53,0 17.7,3 35.3,13 53,12 17.7,-1 35.3,-13 53,-17 17.7,-4 35.3,0 53,10 17.7,10 35.3,26 53,34 17.7,8 35.3,8 53,2 17.7,-6 35.3,-18 52.8,-29 17.5,-11 34.9,-21 52.4,-22 17.5,-1 35.1,7 52.8,10 17.7,3 35.3,1 53,-2 17.7,-3 35.3,-7 53,-11 17.7,-4 35.3,-8 53,-7 17.7,1 35.3,7 53,15 17.7,8 35.3,18 53,21 17.7,3 35.3,-1 53,-4 17.7,-3 35.3,-5 44.2,-6 l 8.8,-1 v -32 l -8.8,-1 c -8.9,-1 -26.5,-3 -44.2,-2 -17.7,1 -35.3,5 -53,3 -17.7,-2 -35.3,-10 -53,-14 -17.7,-4 -35.3,-4 -53,-3 -17.7,1 -35.3,3 -53,5 -17.7,2 -35.3,4 -53,7 -17.7,3 -35.3,7 -53,5 -17.7,-2 -35.3,-10 -52.8,-10 -17.5,0 -34.9,8 -52.4,17 -17.5,9 -35.1,19 -52.8,26 -17.7,7 -35.3,11 -53,6 -17.7,-5 -35.3,-19 -53,-28 -17.7,-9 -35.3,-13 -53,-12 -17.7,1 -35.3,7 -53,9 -17.7,2 -35.3,0 -53,-4 C 88.3,437 70.7,431 53,427 35.3,423 17.7,421 8.8,420 L 0,419 Z"
       fill="#2f3236"
       id="path2471" />
    <path
       d="m 0,493 8.8,-1 c 8.9,-1 26.5,-3 44.2,-2 17.7,1 35.3,5 53,9 17.7,4 35.3,8 53,2 17.7,-6 35.3,-22 53,-26 17.7,-4 35.3,4 53,17 17.7,13 35.3,31 53,40 17.7,9 35.3,9 53,2 17.7,-7 35.3,-21 52.8,-33 17.5,-12 34.9,-22 52.4,-21 17.5,1 35.1,13 52.8,17 17.7,4 35.3,0 53,-6 17.7,-6 35.3,-14 53,-20 17.7,-6 35.3,-10 53,-10 17.7,0 35.3,4 53,12 17.7,8 35.3,20 53,25 17.7,5 35.3,3 53,1 17.7,-2 35.3,-4 44.2,-5 l 8.8,-1 v -26 l -8.8,1 c -8.9,1 -26.5,3 -44.2,6 -17.7,3 -35.3,7 -53,4 -17.7,-3 -35.3,-13 -53,-21 -17.7,-8 -35.3,-14 -53,-15 -17.7,-1 -35.3,3 -53,7 -17.7,4 -35.3,8 -53,11 -17.7,3 -35.3,5 -53,2 -17.7,-3 -35.3,-11 -52.8,-10 -17.5,1 -34.9,11 -52.4,22 -17.5,11 -35.1,23 -52.8,29 -17.7,6 -35.3,6 -53,-2 -17.7,-8 -35.3,-24 -53,-34 -17.7,-10 -35.3,-14 -53,-10 -17.7,4 -35.3,16 -53,17 -17.7,1 -35.3,-9 -53,-12 -17.7,-3 -35.3,1 -53,0 C 35.3,461 17.7,455 8.8,452 L 0,449 Z"
       fill="#2d3033"
       id="path2473" />
    <path
       d="m 0,517 8.8,-2 c 8.9,-2 26.5,-6 44.2,-7 17.7,-1 35.3,1 53,4 17.7,3 35.3,7 53,2 17.7,-5 35.3,-19 53,-22 17.7,-3 35.3,5 53,17 17.7,12 35.3,28 53,36 17.7,8 35.3,8 53,4 17.7,-4 35.3,-12 52.8,-24 17.5,-12 34.9,-28 52.4,-30 17.5,-2 35.1,10 52.8,16 17.7,6 35.3,6 53,0 17.7,-6 35.3,-18 53,-25 17.7,-7 35.3,-9 53,-6 17.7,3 35.3,11 53,20 17.7,9 35.3,19 53,24 17.7,5 35.3,5 53,3 17.7,-2 35.3,-6 44.2,-8 l 8.8,-2 v -26 l -8.8,1 c -8.9,1 -26.5,3 -44.2,5 -17.7,2 -35.3,4 -53,-1 -17.7,-5 -35.3,-17 -53,-25 -17.7,-8 -35.3,-12 -53,-12 -17.7,0 -35.3,4 -53,10 -17.7,6 -35.3,14 -53,20 -17.7,6 -35.3,10 -53,6 -17.7,-4 -35.3,-16 -52.8,-17 -17.5,-1 -34.9,9 -52.4,21 -17.5,12 -35.1,26 -52.8,33 -17.7,7 -35.3,7 -53,-2 -17.7,-9 -35.3,-27 -53,-40 -17.7,-13 -35.3,-21 -53,-17 -17.7,4 -35.3,20 -53,26 -17.7,6 -35.3,2 -53,-2 -17.7,-4 -35.3,-8 -53,-9 -17.7,-1 -35.3,1 -44.2,2 L 0,491 Z"
       fill="#2b2e30"
       id="path2475" />
    <path
       d="m 0,571 8.8,-6 c 8.9,-6 26.5,-18 44.2,-21 17.7,-3 35.3,3 53,4 17.7,1 35.3,-3 53,-11 17.7,-8 35.3,-20 53,-18 17.7,2 35.3,18 53,29 17.7,11 35.3,17 53,20 17.7,3 35.3,3 53,1 17.7,-2 35.3,-6 52.8,-11 17.5,-5 34.9,-11 52.4,-11 17.5,0 35.1,6 52.8,12 17.7,6 35.3,12 53,3 17.7,-9 35.3,-33 53,-42 17.7,-9 35.3,-3 53,3 17.7,6 35.3,12 53,16 17.7,4 35.3,6 53,7 17.7,1 35.3,1 53,3 17.7,2 35.3,6 44.2,8 l 8.8,2 v -44 l -8.8,2 c -8.9,2 -26.5,6 -44.2,8 -17.7,2 -35.3,2 -53,-3 -17.7,-5 -35.3,-15 -53,-24 -17.7,-9 -35.3,-17 -53,-20 -17.7,-3 -35.3,-1 -53,6 -17.7,7 -35.3,19 -53,25 -17.7,6 -35.3,6 -53,0 -17.7,-6 -35.3,-18 -52.8,-16 -17.5,2 -34.9,18 -52.4,30 -17.5,12 -35.1,20 -52.8,24 -17.7,4 -35.3,4 -53,-4 -17.7,-8 -35.3,-24 -53,-36 -17.7,-12 -35.3,-20 -53,-17 -17.7,3 -35.3,17 -53,22 -17.7,5 -35.3,1 -53,-2 -17.7,-3 -35.3,-5 -53,-4 -17.7,1 -35.3,5 -44.2,7 L 0,515 Z"
       fill="#282b2e"
       id="path2477" />
    <path
       d="m 0,601 h 8.8 c 8.9,0 26.5,0 44.2,0 17.7,0 35.3,0 53,0 17.7,0 35.3,0 53,0 17.7,0 35.3,0 53,0 17.7,0 35.3,0 53,0 17.7,0 35.3,0 53,0 17.7,0 35.3,0 53,0 17.7,0 35.3,0 52.8,0 17.5,0 34.9,0 52.4,0 17.5,0 35.1,0 52.8,0 17.7,0 35.3,0 53,0 17.7,0 35.3,0 53,0 17.7,0 35.3,0 53,0 17.7,0 35.3,0 53,0 17.7,0 35.3,0 53,0 17.7,0 35.3,0 53,0 17.7,0 35.3,0 44.2,0 h 8.8 v -44 l -8.8,-2 c -8.9,-2 -26.5,-6 -44.2,-8 -17.7,-2 -35.3,-2 -53,-3 -17.7,-1 -35.3,-3 -53,-7 -17.7,-4 -35.3,-10 -53,-16 -17.7,-6 -35.3,-12 -53,-3 -17.7,9 -35.3,33 -53,42 -17.7,9 -35.3,3 -53,-3 -17.7,-6 -35.3,-12 -52.8,-12 -17.5,0 -34.9,6 -52.4,11 -17.5,5 -35.1,9 -52.8,11 -17.7,2 -35.3,2 -53,-1 -17.7,-3 -35.3,-9 -53,-20 -17.7,-11 -35.3,-27 -53,-29 -17.7,-2 -35.3,10 -53,18 -17.7,8 -35.3,12 -53,11 -17.7,-1 -35.3,-7 -53,-4 -17.7,3 -35.3,15 -44.2,21 L 0,569 Z"
       fill="#26292b"
       id="path2479" />
  </g>
  <g
     id="g2977"
     transform="translate(-883.19531,102.57224)">
    <g
       id="g1833"
       transform="translate(-650.96017,53.640988)">
      <path
         d="m 1534.5634,-61.475175 21.5,7.5 c 21.5,7.5 64.5,22.5 107.3,27.2 42.9,4.6 85.5,-1 128.4,11 42.8,12 85.8,41.600001 128.6,58.000001 42.9,16.3 85.5,19.3 128.4,14.5 42.8,-4.9 85.8,-17.5 128.6,-19.7 42.9,-2.2 85.5,6.2 128.4,12.7 42.8,6.5 85.8,11.1 107.3,13.5 l 21.5,2.3 V -157.47517 h -21.5 c -21.5,0 -64.5,0 -107.3,0 -42.9,0 -85.5,0 -128.4,0 -42.8,0 -85.8,0 -128.6,0 -42.9,0 -85.5,0 -128.4,0 -42.8,0 -85.8,0 -128.6,0 -42.9,0 -85.5,0 -128.4,0 -42.8,0 -85.8,0 -107.3,0 h -21.5 z"
         fill="#fff800"
         stroke-linecap="round"
         stroke-linejoin="miter"
         id="path1824" />
    </g>
  </g>
</svg>
