<svg id="visual" viewBox="0 0 900 600" width="900" height="600" xmlns="http://www.w3.org/2000/svg" xmlns:xlink="http://www.w3.org/1999/xlink" version="1.1"><rect width="900" height="600" fill="#fff800"></rect><g><g transform="translate(249 356)"><path d="M58.4 -18.4C66.4 5.6 57.1 35.8 36.5 51C15.8 66.2 -16.3 66.4 -35.4 51.8C-54.5 37.2 -60.5 7.8 -52.5 -16.3C-44.4 -40.4 -22.2 -59.2 1.5 -59.7C25.2 -60.1 50.4 -42.3 58.4 -18.4Z" stroke="#33363a" fill="none" stroke-width="20"></path></g><g transform="translate(239 160)"><path d="M48.7 -18.4C55.4 5 48 30.5 29.9 44.4C11.8 58.4 -17.1 60.8 -34.3 48.1C-51.6 35.3 -57.2 7.5 -49.5 -17.1C-41.9 -41.8 -20.9 -63.1 0 -63.1C20.9 -63.1 41.9 -41.8 48.7 -18.4Z" stroke="#33363a" fill="none" stroke-width="20"></path></g><g transform="translate(26 472)"><path d="M38.4 -10.5C44.7 6.9 41.2 29.4 27.3 40.2C13.3 51 -11.1 50 -28 37.9C-44.9 25.8 -54.2 2.6 -48.3 -14.4C-42.4 -31.3 -21.2 -42 -2.6 -41.1C16.1 -40.3 32.1 -28 38.4 -10.5Z" stroke="#33363a" fill="none" stroke-width="20"></path></g><g transform="translate(627 14)"><path d="M41.1 -14.3C46.2 2.4 38.5 22.3 23.1 34.1C7.7 45.8 -15.4 49.4 -30.8 39C-46.2 28.6 -54 4.3 -47.6 -14.2C-41.2 -32.7 -20.6 -45.3 -1.3 -44.9C18 -44.4 36 -31 41.1 -14.3Z" stroke="#33363a" fill="none" stroke-width="20"></path></g><g transform="translate(758 156)"><path d="M50.2 -18C57.3 5.7 50.1 32.4 32.7 45.1C15.2 57.7 -12.4 56.4 -31.7 42.6C-51 28.9 -62 2.6 -55.3 -20.5C-48.6 -43.5 -24.3 -63.4 -1.4 -62.9C21.5 -62.5 43 -41.7 50.2 -18Z" stroke="#33363a" fill="none" stroke-width="20"></path></g><g transform="translate(494 403)"><path d="M40.9 -14.1C46.4 3.4 39.5 24.2 24.2 35.8C9 47.5 -14.6 50 -30.8 39.1C-47 28.1 -55.8 3.5 -49.5 -15.3C-43.1 -34.1 -21.5 -47.3 -1.9 -46.6C17.8 -46 35.5 -31.7 40.9 -14.1Z" stroke="#33363a" fill="none" stroke-width="20"></path></g><g transform="translate(39 272)"><path d="M46.8 -15.9C52.6 2.7 43.8 25.4 28.3 35.9C12.8 46.5 -9.4 44.9 -24.5 33.9C-39.7 22.8 -48 2.3 -42.7 -15.6C-37.5 -33.4 -18.7 -48.6 0.9 -48.9C20.5 -49.2 41 -34.6 46.8 -15.9Z" stroke="#33363a" fill="none" stroke-width="20"></path></g><g transform="translate(441 124)"><path d="M42 -12.4C47.5 3.2 40.2 24.3 25.4 35C10.6 45.8 -11.7 46.3 -24.8 36.3C-37.9 26.2 -41.8 5.7 -36.2 -10.2C-30.5 -26.1 -15.2 -37.3 1.5 -37.8C18.3 -38.3 36.5 -28 42 -12.4Z" stroke="#33363a" fill="none" stroke-width="20"></path></g><g transform="translate(385 577)"><path d="M38.1 -12.6C43 2.6 36.1 21.4 23.1 30.5C10.1 39.7 -8.9 39.1 -22 29.7C-35 20.4 -42 2.2 -37.4 -12.7C-32.7 -27.6 -16.3 -39.2 0.1 -39.3C16.6 -39.3 33.3 -27.8 38.1 -12.6Z" stroke="#33363a" fill="none" stroke-width="20"></path></g><g transform="translate(592 578)"><path d="M45.1 -13.7C50.9 3.3 42.9 25.7 27 37.2C11.1 48.8 -12.8 49.6 -26.2 39.1C-39.6 28.6 -42.5 6.9 -36.4 -10.4C-30.3 -27.8 -15.2 -40.7 2.2 -41.5C19.6 -42.2 39.3 -30.7 45.1 -13.7Z" stroke="#33363a" fill="none" stroke-width="20"></path></g><g transform="translate(72 33)"><path d="M46.7 -14.1C53.6 6.1 47.6 31.6 29.8 45.7C12 59.7 -17.6 62.3 -37.6 48.5C-57.6 34.7 -68.2 4.6 -60.3 -16.9C-52.5 -38.4 -26.2 -51.2 -3.2 -50.1C19.9 -49.1 39.8 -34.3 46.7 -14.1Z" stroke="#33363a" fill="none" stroke-width="20"></path></g><g transform="translate(685 348)"><path d="M54.2 -17.2C61.1 3.4 51 29.9 32.9 42.3C14.8 54.8 -11.4 53.3 -28.4 40.6C-45.4 27.9 -53.1 4.1 -46.8 -15.7C-40.6 -35.5 -20.3 -51.2 1.7 -51.8C23.7 -52.3 47.4 -37.7 54.2 -17.2Z" stroke="#33363a" fill="none" stroke-width="20"></path></g><g transform="translate(795 558)"><path d="M52.4 -17.4C59.7 5.2 51.6 32.5 34 44.8C16.5 57 -10.4 54.2 -29.2 40.5C-48 26.8 -58.7 2.1 -52.5 -19.2C-46.3 -40.4 -23.1 -58.3 -0.3 -58.2C22.6 -58.1 45.2 -40.1 52.4 -17.4Z" stroke="#33363a" fill="none" stroke-width="20"></path></g><g transform="translate(871 368)"><path d="M42.4 -13.5C49 6.4 44.2 30.3 29.8 40.6C15.5 50.8 -8.3 47.5 -25.9 34.9C-43.5 22.3 -54.8 0.4 -49.5 -17.9C-44.1 -36.1 -22.1 -50.7 -2.1 -50.1C17.9 -49.4 35.9 -33.5 42.4 -13.5Z" stroke="#33363a" fill="none" stroke-width="20"></path></g><g transform="translate(187 591)"><path d="M45 -16.3C50.1 1 40.2 21.4 24.5 32.5C8.8 43.6 -12.7 45.4 -26 35.8C-39.3 26.1 -44.3 5.1 -38.6 -13.1C-32.9 -31.2 -16.4 -46.4 1.8 -47C20 -47.6 40 -33.5 45 -16.3Z" stroke="#33363a" fill="none" stroke-width="20"></path></g></g></svg>